<svg width="22" height="18" viewBox="0 0 22 18" fill="none" xmlns="http://www.w3.org/2000/svg">
<path d="M19.7488 6.40988L16.1093 1.21282L17.8424 0L21.4808 5.19706L19.7488 6.40988ZM17.7567 9.09564L15.938 6.49553L7.27588 12.5607L9.09459 15.1587L7.36259 16.3726L2.51129 9.44247L4.2433 8.22964L6.062 10.8287L14.7241 4.76353L12.9054 2.16447L14.6374 0.951648L19.4887 7.88071L17.7567 9.09459V9.09564ZM20.268 3.464L22 2.25118L20.7872 0.519177L19.0552 1.732L20.268 3.464ZM5.89071 16.1135L2.25118 10.9165L0.519177 12.1293L4.15765 17.3263L5.89071 16.1135ZM2.94482 15.5943L1.21282 16.8072L0 15.0752L1.732 13.8623L2.94482 15.5943Z" fill="#828B98"/>
</svg>
