<svg width="22" height="22" viewBox="0 0 22 22" fill="none" xmlns="http://www.w3.org/2000/svg">
<path fill-rule="evenodd" clip-rule="evenodd" d="M11 20.9C16.4676 20.9 20.9 16.4676 20.9 11C20.9 5.53245 16.4676 1.1 11 1.1C5.53245 1.1 1.1 5.53245 1.1 11C1.1 16.4676 5.53245 20.9 11 20.9ZM11 22C17.0753 22 22 17.0753 22 11C22 4.9247 17.0753 0 11 0C4.9247 0 0 4.9247 0 11C0 17.0753 4.9247 22 11 22Z" fill="#828B98"/>
<path d="M4.39999 17.3965C4.39999 16.8284 4.82459 16.3482 5.38999 16.2855C9.63324 15.8158 12.386 15.8582 16.6199 16.296C16.8313 16.3182 17.0317 16.4015 17.1966 16.5357C17.3614 16.6699 17.4837 16.8492 17.5483 17.0517C17.6129 17.2543 17.6172 17.4712 17.5605 17.6761C17.5039 17.881 17.3888 18.065 17.2293 18.2056C12.2325 22.561 9.37695 22.5011 4.75199 18.21C4.52649 18.001 4.39999 17.704 4.39999 17.3971V17.3965Z" fill="#828B98"/>
<path fill-rule="evenodd" clip-rule="evenodd" d="M16.5633 16.8427C12.3629 16.4082 9.64976 16.3675 5.44996 16.8322C5.31171 16.8483 5.18427 16.9149 5.09202 17.0191C4.99977 17.1233 4.94921 17.2579 4.95001 17.3971C4.95001 17.5544 5.01546 17.7034 5.12601 17.8068C7.41841 19.9331 9.15531 20.894 10.8532 20.9C12.5571 20.9061 14.3875 19.9529 16.868 17.7914C16.9468 17.7213 17.0035 17.6298 17.0313 17.528C17.059 17.4262 17.0566 17.3185 17.0243 17.2181C16.9921 17.1177 16.9313 17.0288 16.8494 16.9622C16.7676 16.8957 16.6682 16.8543 16.5633 16.8432V16.8427ZM5.32951 15.7388C9.61731 15.2642 12.4102 15.3071 16.6771 15.7487C16.9952 15.7819 17.2967 15.9071 17.5447 16.109C17.7927 16.3109 17.9764 16.5808 18.0734 16.8855C18.1704 17.1902 18.1765 17.5166 18.0908 17.8247C18.0052 18.1329 17.8316 18.4093 17.5912 18.6203C15.075 20.8137 12.9795 22.0083 10.8499 22C8.71421 21.9923 6.71111 20.7774 4.37856 18.6131C4.21155 18.4576 4.07842 18.2692 3.98748 18.0599C3.89654 17.8506 3.84974 17.6247 3.85001 17.3965C3.84921 16.9865 3.99972 16.5905 4.27272 16.2845C4.54572 15.9785 4.92201 15.784 5.32951 15.7383V15.7388Z" fill="#828B98"/>
<path d="M15.4 8.79996C15.4 9.96692 14.9364 11.0861 14.1113 11.9112C13.2861 12.7364 12.167 13.2 11 13.2C9.83305 13.2 8.7139 12.7364 7.88874 11.9112C7.06358 11.0861 6.60001 9.96692 6.60001 8.79996C6.60001 7.63301 7.06358 6.51385 7.88874 5.68869C8.7139 4.86353 9.83305 4.39996 11 4.39996C12.167 4.39996 13.2861 4.86353 14.1113 5.68869C14.9364 6.51385 15.4 7.63301 15.4 8.79996Z" fill="#828B98"/>
<path fill-rule="evenodd" clip-rule="evenodd" d="M11 12.1C11.8752 12.1 12.7146 11.7523 13.3335 11.1334C13.9523 10.5145 14.3 9.67518 14.3 8.79996C14.3 7.92475 13.9523 7.08538 13.3335 6.46651C12.7146 5.84764 11.8752 5.49996 11 5.49996C10.1248 5.49996 9.28542 5.84764 8.66655 6.46651C8.04768 7.08538 7.70001 7.92475 7.70001 8.79996C7.70001 9.67518 8.04768 10.5145 8.66655 11.1334C9.28542 11.7523 10.1248 12.1 11 12.1ZM11 13.2C12.167 13.2 13.2861 12.7364 14.1113 11.9112C14.9364 11.0861 15.4 9.96692 15.4 8.79996C15.4 7.63301 14.9364 6.51385 14.1113 5.68869C13.2861 4.86353 12.167 4.39996 11 4.39996C9.83305 4.39996 8.7139 4.86353 7.88874 5.68869C7.06358 6.51385 6.60001 7.63301 6.60001 8.79996C6.60001 9.96692 7.06358 11.0861 7.88874 11.9112C8.7139 12.7364 9.83305 13.2 11 13.2Z" fill="#828B98"/>
</svg>
