<svg width="22" height="22" viewBox="0 0 22 22" fill="none" xmlns="http://www.w3.org/2000/svg">
<path fill-rule="evenodd" clip-rule="evenodd" d="M17.7222 20.7777C18.5326 20.7777 19.3098 20.4558 19.8828 19.8828C20.4559 19.3098 20.7778 18.5326 20.7778 17.7222C20.7778 16.9118 20.4559 16.1346 19.8828 15.5616C19.3098 14.9885 18.5326 14.6666 17.7222 14.6666C16.9119 14.6666 16.1347 14.9885 15.5616 15.5616C14.9886 16.1346 14.6667 16.9118 14.6667 17.7222C14.6667 18.5326 14.9886 19.3098 15.5616 19.8828C16.1347 20.4558 16.9119 20.7777 17.7222 20.7777ZM17.7222 22C18.8568 22 19.9448 21.5493 20.7471 20.747C21.5493 19.9448 22 18.8567 22 17.7222C22 16.5876 21.5493 15.4996 20.7471 14.6973C19.9448 13.8951 18.8568 13.4444 17.7222 13.4444C16.5877 13.4444 15.4996 13.8951 14.6974 14.6973C13.8952 15.4996 13.4445 16.5876 13.4445 17.7222C13.4445 18.8567 13.8952 19.9448 14.6974 20.747C15.4996 21.5493 16.5877 22 17.7222 22Z" fill="#828B98"/>
<path fill-rule="evenodd" clip-rule="evenodd" d="M17.7222 15.5834C17.8843 15.5834 18.0398 15.6477 18.1544 15.7623C18.269 15.8769 18.3333 16.0324 18.3333 16.1945V17.4692L18.7654 17.9013C18.8767 18.0166 18.9383 18.1709 18.9369 18.3312C18.9355 18.4914 18.8713 18.6447 18.758 18.758C18.6447 18.8713 18.4914 18.9355 18.3312 18.9369C18.1709 18.9383 18.0165 18.8767 17.9013 18.7654L17.1111 17.9752V16.1945C17.1111 16.0324 17.1755 15.8769 17.2901 15.7623C17.4047 15.6477 17.5602 15.5834 17.7222 15.5834ZM4.8889 10.3889H3.66668V11.6111H4.8889V10.3889ZM3.66668 9.16669C3.34253 9.16669 3.03165 9.29546 2.80244 9.52467C2.57323 9.75388 2.44446 10.0648 2.44446 10.3889V11.6111C2.44446 11.9353 2.57323 12.2462 2.80244 12.4754C3.03165 12.7046 3.34253 12.8334 3.66668 12.8334H4.8889C5.21306 12.8334 5.52393 12.7046 5.75314 12.4754C5.98236 12.2462 6.11112 11.9353 6.11112 11.6111V10.3889C6.11112 10.0648 5.98236 9.75388 5.75314 9.52467C5.52393 9.29546 5.21306 9.16669 4.8889 9.16669H3.66668ZM9.77779 10.3889H8.55557V11.6111H9.77779V10.3889ZM8.55557 9.16669C8.23142 9.16669 7.92054 9.29546 7.69133 9.52467C7.46212 9.75388 7.33335 10.0648 7.33335 10.3889V11.6111C7.33335 11.9353 7.46212 12.2462 7.69133 12.4754C7.92054 12.7046 8.23142 12.8334 8.55557 12.8334H9.77779C10.1019 12.8334 10.4128 12.7046 10.642 12.4754C10.8712 12.2462 11 11.9353 11 11.6111V10.3889C11 10.0648 10.8712 9.75388 10.642 9.52467C10.4128 9.29546 10.1019 9.16669 9.77779 9.16669H8.55557ZM14.6667 10.3889H13.4445V11.6111H14.6667V10.3889ZM13.4445 9.16669C13.1203 9.16669 12.8094 9.29546 12.5802 9.52467C12.351 9.75388 12.2222 10.0648 12.2222 10.3889V11.6111C12.2222 11.9353 12.351 12.2462 12.5802 12.4754C12.8094 12.7046 13.1203 12.8334 13.4445 12.8334H14.6667C14.9908 12.8334 15.3017 12.7046 15.5309 12.4754C15.7601 12.2462 15.8889 11.9353 15.8889 11.6111V10.3889C15.8889 10.0648 15.7601 9.75388 15.5309 9.52467C15.3017 9.29546 14.9908 9.16669 14.6667 9.16669H13.4445ZM4.8889 15.2778H3.66668V16.5H4.8889V15.2778ZM3.66668 14.0556C3.34253 14.0556 3.03165 14.1843 2.80244 14.4136C2.57323 14.6428 2.44446 14.9536 2.44446 15.2778V16.5C2.44446 16.8242 2.57323 17.1351 2.80244 17.3643C3.03165 17.5935 3.34253 17.7222 3.66668 17.7222H4.8889C5.21306 17.7222 5.52393 17.5935 5.75314 17.3643C5.98236 17.1351 6.11112 16.8242 6.11112 16.5V15.2778C6.11112 14.9536 5.98236 14.6428 5.75314 14.4136C5.52393 14.1843 5.21306 14.0556 4.8889 14.0556H3.66668ZM9.77779 15.2778H8.55557V16.5H9.77779V15.2778ZM8.55557 14.0556C8.23142 14.0556 7.92054 14.1843 7.69133 14.4136C7.46212 14.6428 7.33335 14.9536 7.33335 15.2778V16.5C7.33335 16.8242 7.46212 17.1351 7.69133 17.3643C7.92054 17.5935 8.23142 17.7222 8.55557 17.7222H9.77779C10.1019 17.7222 10.4128 17.5935 10.642 17.3643C10.8712 17.1351 11 16.8242 11 16.5V15.2778C11 14.9536 10.8712 14.6428 10.642 14.4136C10.4128 14.1843 10.1019 14.0556 9.77779 14.0556H8.55557Z" fill="#828B98"/>
<path fill-rule="evenodd" clip-rule="evenodd" d="M1.22222 3.66665C1.22222 3.50457 1.28661 3.34913 1.40121 3.23453C1.51582 3.11992 1.67126 3.05554 1.83333 3.05554H4.88889V1.83331H1.83333C1.3471 1.83331 0.880788 2.02647 0.536971 2.37028C0.193154 2.7141 0 3.18042 0 3.66665V18.3333C0 18.8195 0.193154 19.2859 0.536971 19.6297C0.880788 19.9735 1.3471 20.1666 1.83333 20.1666H14.2114C13.9508 19.7934 13.7517 19.3807 13.6217 18.9444H1.83333C1.67126 18.9444 1.51582 18.88 1.40121 18.7654C1.28661 18.6508 1.22222 18.4954 1.22222 18.3333V3.66665ZM17.1111 13.4872C17.5165 13.4292 17.928 13.4292 18.3333 13.4872V3.66665C18.3333 3.18042 18.1402 2.7141 17.7964 2.37028C17.4525 2.02647 16.9862 1.83331 16.5 1.83331H14.6667V3.05554H16.5C16.6621 3.05554 16.8175 3.11992 16.9321 3.23453C17.0467 3.34913 17.1111 3.50457 17.1111 3.66665V13.4872ZM6.11111 3.05554H12.5663V1.83331H6.11111V3.05554Z" fill="#828B98"/>
<path fill-rule="evenodd" clip-rule="evenodd" d="M13.4445 1.83331H6.11113V3.66665C6.11113 3.82872 6.04674 3.98416 5.93214 4.09877C5.81753 4.21337 5.6621 4.27776 5.50002 4.27776C5.33794 4.27776 5.1825 4.21337 5.0679 4.09877C4.95329 3.98416 4.88891 3.82872 4.88891 3.66665V1.83331H1.83335C1.5092 1.83331 1.19832 1.96208 0.96911 2.19129C0.739899 2.4205 0.61113 2.73138 0.61113 3.05554V6.11109C0.61113 6.43524 0.739899 6.74612 0.96911 6.97533C1.19832 7.20454 1.5092 7.33331 1.83335 7.33331H16.5C16.8242 7.33331 17.135 7.20454 17.3643 6.97533C17.5935 6.74612 17.7222 6.43524 17.7222 6.11109V3.05554C17.7222 2.73138 17.5935 2.4205 17.3643 2.19129C17.135 1.96208 16.8242 1.83331 16.5 1.83331H14.6667V3.66665C14.6667 3.82872 14.6023 3.98416 14.4877 4.09877C14.3731 4.21337 14.2176 4.27776 14.0556 4.27776C13.8935 4.27776 13.7381 4.21337 13.6235 4.09877C13.5088 3.98416 13.4445 3.82872 13.4445 3.66665V1.83331Z" fill="#828B98"/>
<path fill-rule="evenodd" clip-rule="evenodd" d="M18.3333 7.33331H1.2222V6.11108H18.3333V7.33331Z" fill="#828B98"/>
<path d="M3.66666 0.611111C3.66666 0.449034 3.73104 0.293596 3.84565 0.17899C3.96025 0.0643849 4.11569 0 4.27777 0C4.43984 0 4.59528 0.0643849 4.70989 0.17899C4.82449 0.293596 4.88888 0.449034 4.88888 0.611111V3.05556C4.88888 3.21763 4.82449 3.37307 4.70989 3.48768C4.59528 3.60228 4.43984 3.66667 4.27777 3.66667C4.11569 3.66667 3.96025 3.60228 3.84565 3.48768C3.73104 3.37307 3.66666 3.21763 3.66666 3.05556V0.611111ZM12.2222 0.611111C12.2222 0.449034 12.2866 0.293596 12.4012 0.17899C12.5158 0.0643849 12.6712 0 12.8333 0C12.9954 0 13.1508 0.0643849 13.2654 0.17899C13.3801 0.293596 13.4444 0.449034 13.4444 0.611111V3.05556C13.4444 3.21763 13.3801 3.37307 13.2654 3.48768C13.1508 3.60228 12.9954 3.66667 12.8333 3.66667C12.6712 3.66667 12.5158 3.60228 12.4012 3.48768C12.2866 3.37307 12.2222 3.21763 12.2222 3.05556V0.611111Z" fill="#828B98"/>
</svg>
