<svg width="22" height="22" viewBox="0 0 22 22" fill="none" xmlns="http://www.w3.org/2000/svg">
<path d="M11 7.5625C11 8.47418 10.6378 9.34852 9.99318 9.99318C9.34852 10.6378 8.47418 11 7.5625 11C6.65082 11 5.77648 10.6378 5.13182 9.99318C4.48716 9.34852 4.125 8.47418 4.125 7.5625C4.125 6.65082 4.48716 5.77648 5.13182 5.13182C5.77648 4.48716 6.65082 4.125 7.5625 4.125C8.47418 4.125 9.34852 4.48716 9.99318 5.13182C10.6378 5.77648 11 6.65082 11 7.5625ZM15.8125 11C16.5418 11 17.2413 10.7103 17.757 10.1945C18.2728 9.67882 18.5625 8.97935 18.5625 8.25C18.5625 7.52065 18.2728 6.82118 17.757 6.30546C17.2413 5.78973 16.5418 5.5 15.8125 5.5C15.0832 5.5 14.3837 5.78973 13.868 6.30546C13.3522 6.82118 13.0625 7.52065 13.0625 8.25C13.0625 8.97935 13.3522 9.67882 13.868 10.1945C14.3837 10.7103 15.0832 11 15.8125 11ZM11 13.0625C11 12.8232 11.0413 12.5922 11.1169 12.3777C11.0779 12.3757 11.039 12.3748 11 12.375H4.125C3.57799 12.375 3.05339 12.5923 2.66659 12.9791C2.2798 13.3659 2.0625 13.8905 2.0625 14.4375V14.5406C2.0625 14.5406 2.0625 18.5625 7.5625 18.5625C9.22625 18.5625 10.3881 18.194 11.198 17.6797C11.2832 17.501 11.3932 17.3346 11.5252 17.1875C11.1863 16.8098 10.9992 16.32 11 15.8125C11 15.2845 11.198 14.8019 11.5252 14.4375C11.1863 14.0598 10.9992 13.57 11 13.0625ZM13.0625 12.375C12.8802 12.375 12.7053 12.4474 12.5764 12.5764C12.4474 12.7053 12.375 12.8802 12.375 13.0625C12.375 13.2448 12.4474 13.4197 12.5764 13.5486C12.7053 13.6776 12.8802 13.75 13.0625 13.75H19.9375C20.1198 13.75 20.2947 13.6776 20.4236 13.5486C20.5526 13.4197 20.625 13.2448 20.625 13.0625C20.625 12.8802 20.5526 12.7053 20.4236 12.5764C20.2947 12.4474 20.1198 12.375 19.9375 12.375H13.0625ZM13.0625 15.125C12.8802 15.125 12.7053 15.1974 12.5764 15.3264C12.4474 15.4553 12.375 15.6302 12.375 15.8125C12.375 15.9948 12.4474 16.1697 12.5764 16.2986C12.7053 16.4276 12.8802 16.5 13.0625 16.5H19.9375C20.1198 16.5 20.2947 16.4276 20.4236 16.2986C20.5526 16.1697 20.625 15.9948 20.625 15.8125C20.625 15.6302 20.5526 15.4553 20.4236 15.3264C20.2947 15.1974 20.1198 15.125 19.9375 15.125H13.0625ZM13.0625 17.875C12.8802 17.875 12.7053 17.9474 12.5764 18.0764C12.4474 18.2053 12.375 18.3802 12.375 18.5625C12.375 18.7448 12.4474 18.9197 12.5764 19.0486C12.7053 19.1776 12.8802 19.25 13.0625 19.25H19.9375C20.1198 19.25 20.2947 19.1776 20.4236 19.0486C20.5526 18.9197 20.625 18.7448 20.625 18.5625C20.625 18.3802 20.5526 18.2053 20.4236 18.0764C20.2947 17.9474 20.1198 17.875 19.9375 17.875H13.0625Z" fill="#828B98"/>
</svg>
